<?xml version="1.0" encoding="iso-8859-1"?>
<!-- Generator: Adobe Illustrator 19.0.0, SVG Export Plug-In . SVG Version: 6.00 Build 0)  -->
<svg version="1.1" id="Layer_1" xmlns="http://www.w3.org/2000/svg" xmlns:xlink="http://www.w3.org/1999/xlink" x="0px" y="0px"
	 viewBox="0 0 369.958 369.958" style="enable-background:new 0 0 369.958 369.958;" xml:space="preserve" opacity="0.1" fill="blue">
<g id="XMLID_443_">
	<g>
		<path d="M305.258,25.467C288.283,8.482,266.018,0,243.754,0c-17.52,0-35.027,5.276-49.969,15.79l-6.599-6.599l-21.213,21.213
			l6.6,6.6c-13.008,18.488-17.991,40.908-14.903,62.406L56.562,228.673l13.298,13.298l-15.1,15.1
			c-10.005,10.005-15.516,23.348-15.516,37.57c0,14.222,5.51,27.564,15.516,37.569c20.716,20.717,54.424,20.717,75.14,0l80.06-80.06
			c9.021-9.019,23.695-9.018,32.713,0c9.019,9.019,9.019,23.694,0,32.713l-63.882,63.882l21.213,21.213l63.882-63.882
			c20.716-20.716,20.716-54.423,0-75.139c-20.716-20.717-54.424-20.718-75.139,0l-80.06,80.06c-9.02,9.019-23.694,9.019-32.714,0
			c-4.339-4.339-6.729-10.148-6.729-16.356c0-6.209,2.39-12.018,6.729-16.357l15.1-15.1l12.158,12.158l130.416-102.008
			c3.357,0.39,6.731,0.61,10.107,0.61c17.522,0,35.008-5.283,49.961-15.798l6.608,6.608l21.213-21.213l-6.601-6.601
			C338.808,103.008,335.598,55.833,305.258,25.467z M122.311,237.877c-7.81,7.81-20.474,7.81-28.284,0
			c-7.81-7.811-7.81-20.474,0-28.284s20.474-7.811,28.284,0C130.121,217.404,130.122,230.066,122.311,237.877z"/>
	</g>
</g>
<g>
</g>
<g>
</g>
<g>
</g>
<g>
</g>
<g>
</g>
<g>
</g>
<g>
</g>
<g>
</g>
<g>
</g>
<g>
</g>
<g>
</g>
<g>
</g>
<g>
</g>
<g>
</g>
<g>
</g>
</svg>
