<svg xmlns="http://www.w3.org/2000/svg" xmlns:xlink="http://www.w3.org/1999/xlink" width="500" zoomAndPan="magnify" viewBox="0 0 375 374.999991" height="500" preserveAspectRatio="xMidYMid meet" version="1.0"><defs><g><g id="id1"/></g><clipPath id="id2"><path d="M 130 66.144531 L 247 66.144531 L 247 230.394531 L 130 230.394531 Z M 130 66.144531 " clip-rule="nonzero"/></clipPath></defs><path fill="rgb(0%, 0%, 0%)" d="M 187.5 0 C 83.945312 0 0 83.945312 0 187.5 C 0 291.054688 83.945312 375 187.5 375 C 291.054688 375 375 291.054688 375 187.5 C 375 83.945312 291.054688 0 187.5 0 " fill-opacity="1" fill-rule="nonzero"/><g clip-path="url(#id2)"><path fill="rgb(100%, 100%, 100%)" d="M 235.914062 110.28125 C 231.832031 115.28125 227.230469 116.996094 222.835938 116.996094 C 215.398438 116.996094 208.5625 112.082031 205.875 109.886719 C 200.53125 105.503906 197.042969 100.53125 195.789062 95.503906 C 194.464844 90.1875 195.722656 85.128906 199.527344 80.464844 C 203.5 75.597656 209.128906 72.570312 215.371094 71.941406 C 216.171875 71.859375 216.96875 71.820312 217.761719 71.820312 C 223.164062 71.820312 228.359375 73.667969 232.597656 77.144531 C 242.628906 85.363281 244.117188 100.230469 235.914062 110.28125 Z M 167.164062 173.40625 C 163.945312 176.628906 158.867188 176.882812 155.347656 173.996094 L 153.203125 172.242188 C 149.683594 169.355469 148.925781 164.320312 151.433594 160.519531 L 185.605469 108.828125 C 187.871094 113.355469 191.480469 117.71875 196.210938 121.589844 C 201.035156 125.546875 206.058594 128.226562 210.996094 129.527344 Z M 154.429688 179.984375 C 153.074219 181.339844 150.9375 181.445312 149.457031 180.230469 L 148.277344 179.265625 C 146.796875 178.050781 146.472656 175.929688 147.53125 174.332031 L 147.808594 173.910156 C 148.441406 174.726562 149.171875 175.484375 150.003906 176.164062 L 152.144531 177.917969 C 152.976562 178.601562 153.863281 179.167969 154.785156 179.628906 Z M 213.277344 127.242188 C 208.230469 126.25 202.992188 123.601562 197.945312 119.464844 C 193 115.414062 189.378906 110.835938 187.382812 106.140625 L 191.765625 99.507812 C 193.703125 104.609375 197.425781 109.507812 202.675781 113.808594 C 207.925781 118.109375 213.453125 120.792969 218.828125 121.683594 Z M 246.136719 92.519531 C 245.375 84.910156 241.703125 78.058594 235.796875 73.21875 C 229.890625 68.382812 222.460938 66.136719 214.867188 66.898438 C 207.277344 67.664062 200.4375 71.339844 195.609375 77.257812 C 191.777344 81.953125 189.96875 87.191406 190.261719 92.601562 L 147.21875 157.722656 C 145.023438 161.046875 144.417969 164.96875 145.265625 168.582031 L 143.316406 171.53125 C 141.125 174.851562 141.441406 179.121094 143.921875 182.050781 C 139.351562 186.808594 127.980469 199.726562 130.53125 208.066406 C 130.929688 209.375 131.6875 210.269531 132.78125 210.722656 C 135.621094 211.902344 139.910156 209.613281 145.339844 206.71875 C 153.675781 202.277344 164.054688 196.746094 170.246094 203.644531 C 172.878906 206.574219 173.972656 209.699219 173.503906 212.925781 C 172.300781 221.144531 161.605469 227.761719 161.496094 227.828125 C 160.851562 228.21875 160.644531 229.066406 161.039062 229.714844 C 161.296875 230.136719 161.75 230.375 162.210938 230.375 C 162.453125 230.375 162.699219 230.308594 162.921875 230.171875 C 163.40625 229.878906 174.820312 222.828125 176.210938 213.332031 C 176.8125 209.253906 175.488281 205.378906 172.28125 201.808594 C 164.65625 193.316406 152.75 199.664062 144.054688 204.296875 C 139.835938 206.542969 135.472656 208.871094 133.828125 208.1875 C 133.617188 208.097656 133.347656 207.914062 133.148438 207.261719 C 131.203125 200.898438 140.558594 189.476562 145.941406 183.898438 L 146.253906 184.15625 C 147.882812 185.488281 149.847656 186.148438 151.808594 186.148438 C 154.054688 186.148438 156.292969 185.277344 158.003906 183.566406 L 160.503906 181.066406 C 160.648438 181.070312 160.789062 181.074219 160.929688 181.074219 C 164.488281 181.074219 168.03125 179.699219 170.738281 176.992188 L 225.882812 121.785156 C 231.230469 121 235.996094 118.183594 239.828125 113.488281 C 244.65625 107.570312 246.898438 100.125 246.136719 92.519531 " fill-opacity="1" fill-rule="nonzero"/></g><path fill="rgb(100%, 100%, 100%)" d="M 229.859375 80.496094 C 229.277344 80.015625 228.410156 80.101562 227.933594 80.6875 C 227.453125 81.277344 227.539062 82.140625 228.125 82.621094 C 235.144531 88.371094 236.183594 98.769531 230.445312 105.800781 C 228.046875 108.742188 225.257812 110.074219 221.917969 109.875 C 221.160156 109.824219 220.515625 110.40625 220.46875 111.164062 C 220.425781 111.917969 221 112.570312 221.757812 112.613281 C 222.027344 112.628906 222.296875 112.636719 222.5625 112.636719 C 226.441406 112.636719 229.804688 110.925781 232.566406 107.539062 C 239.261719 99.335938 238.046875 87.203125 229.859375 80.496094 " fill-opacity="1" fill-rule="nonzero"/><path fill="rgb(100%, 100%, 100%)" d="M 224.496094 78.839844 C 224.953125 78.28125 224.867188 77.453125 224.308594 76.996094 C 223.75 76.535156 222.925781 76.621094 222.46875 77.179688 C 222.011719 77.742188 222.097656 78.566406 222.652344 79.023438 C 223.214844 79.480469 224.035156 79.398438 224.496094 78.839844 " fill-opacity="1" fill-rule="nonzero"/><path fill="rgb(100%, 100%, 100%)" d="M 202.949219 129.386719 C 202.410156 128.855469 201.539062 128.867188 201.011719 129.410156 L 163.394531 167.988281 C 162.488281 168.046875 160.300781 168.03125 158.757812 166.765625 C 157.613281 165.828125 156.992188 164.324219 156.910156 162.296875 C 156.878906 161.539062 156.234375 160.949219 155.484375 160.984375 C 154.726562 161.015625 154.140625 161.652344 154.171875 162.410156 C 154.289062 165.253906 155.246094 167.433594 157.023438 168.890625 C 158.949219 170.46875 161.355469 170.753906 162.84375 170.753906 C 163.644531 170.753906 164.179688 170.671875 164.238281 170.664062 C 164.53125 170.613281 164.796875 170.476562 165.003906 170.265625 L 202.972656 131.328125 C 203.5 130.785156 203.492188 129.917969 202.949219 129.386719 " fill-opacity="1" fill-rule="nonzero"/><g fill="rgb(100%, 100%, 100%)" fill-opacity="1"><g transform="translate(55.69922, 292.013242)"><g><path d="M 24.15625 -52.21875 C 26.863281 -52.21875 29.242188 -51.78125 31.296875 -50.90625 C 33.347656 -50.039062 35.050781 -48.90625 36.40625 -47.5 C 37.757812 -46.101562 38.773438 -44.507812 39.453125 -42.71875 C 40.128906 -40.925781 40.46875 -39.113281 40.46875 -37.28125 C 40.46875 -34.957031 39.921875 -32.753906 38.828125 -30.671875 C 37.742188 -28.597656 36.113281 -26.929688 33.9375 -25.671875 C 35.289062 -24.953125 36.453125 -24.128906 37.421875 -23.203125 C 38.390625 -22.285156 39.175781 -21.1875 39.78125 -19.90625 C 40.382812 -18.625 40.832031 -17.148438 41.125 -15.484375 C 41.414062 -13.816406 41.5625 -11.867188 41.5625 -9.640625 L 41.5625 0 L 33.65625 0 L 33.65625 -9.640625 C 33.65625 -13.554688 32.785156 -16.625 31.046875 -18.84375 C 29.304688 -21.070312 26.5 -22.1875 22.625 -22.1875 L 11.890625 -22.1875 L 11.890625 0 L 3.984375 0 L 3.984375 -48.234375 C 3.984375 -49.390625 4.359375 -50.34375 5.109375 -51.09375 C 5.859375 -51.84375 6.816406 -52.21875 7.984375 -52.21875 Z M 24.15625 -29.453125 C 25.550781 -29.453125 26.78125 -29.664062 27.84375 -30.09375 C 28.914062 -30.53125 29.800781 -31.109375 30.5 -31.828125 C 31.195312 -32.554688 31.710938 -33.394531 32.046875 -34.34375 C 32.390625 -35.289062 32.5625 -36.242188 32.5625 -37.203125 C 32.5625 -38.171875 32.390625 -39.113281 32.046875 -40.03125 C 31.710938 -40.957031 31.195312 -41.78125 30.5 -42.5 C 29.800781 -43.226562 28.914062 -43.820312 27.84375 -44.28125 C 26.78125 -44.738281 25.550781 -44.96875 24.15625 -44.96875 L 11.890625 -44.96875 L 11.890625 -29.453125 Z M 24.15625 -29.453125 "/></g></g></g><g fill="rgb(100%, 100%, 100%)" fill-opacity="1"><g transform="translate(100.151319, 292.013242)"><g><path d="M 7.984375 0 C 6.816406 0 5.859375 -0.375 5.109375 -1.125 C 4.359375 -1.875 3.984375 -2.828125 3.984375 -3.984375 L 3.984375 -48.234375 C 3.984375 -49.390625 4.359375 -50.34375 5.109375 -51.09375 C 5.859375 -51.84375 6.816406 -52.21875 7.984375 -52.21875 L 38.078125 -52.21875 L 38.078125 -44.96875 L 11.890625 -44.96875 L 11.890625 -29.671875 L 35.90625 -29.671875 L 35.90625 -22.40625 L 11.890625 -22.40625 L 11.890625 -7.25 L 39.171875 -7.25 L 39.171875 0 Z M 7.984375 0 "/></g></g></g><g fill="rgb(100%, 100%, 100%)" fill-opacity="1"><g transform="translate(141.122664, 292.013242)"><g><path d="M 3.984375 -48.234375 C 3.984375 -49.390625 4.359375 -50.34375 5.109375 -51.09375 C 5.859375 -51.84375 6.816406 -52.21875 7.984375 -52.21875 L 24.8125 -52.21875 C 27.65625 -52.21875 30.140625 -51.757812 32.265625 -50.84375 C 34.398438 -49.925781 36.179688 -48.71875 37.609375 -47.21875 C 39.035156 -45.71875 40.097656 -44 40.796875 -42.0625 C 41.492188 -40.132812 41.84375 -38.175781 41.84375 -36.1875 C 41.84375 -34.207031 41.492188 -32.257812 40.796875 -30.34375 C 40.097656 -28.4375 39.035156 -26.734375 37.609375 -25.234375 C 36.179688 -23.742188 34.398438 -22.535156 32.265625 -21.609375 C 30.140625 -20.691406 27.65625 -20.234375 24.8125 -20.234375 L 11.890625 -20.234375 L 11.890625 0 L 3.984375 0 Z M 24.8125 -27.484375 C 26.351562 -27.484375 27.691406 -27.738281 28.828125 -28.25 C 29.960938 -28.757812 30.90625 -29.410156 31.65625 -30.203125 C 32.40625 -31.003906 32.972656 -31.9375 33.359375 -33 C 33.742188 -34.0625 33.9375 -35.125 33.9375 -36.1875 C 33.9375 -37.300781 33.742188 -38.378906 33.359375 -39.421875 C 32.972656 -40.460938 32.40625 -41.394531 31.65625 -42.21875 C 30.90625 -43.039062 29.960938 -43.703125 28.828125 -44.203125 C 27.691406 -44.710938 26.351562 -44.96875 24.8125 -44.96875 L 11.890625 -44.96875 L 11.890625 -27.484375 Z M 24.8125 -27.484375 "/></g></g></g><g fill="rgb(100%, 100%, 100%)" fill-opacity="1"><g transform="translate(185.357224, 292.013242)"><g><path d="M 7.984375 0 C 6.816406 0 5.859375 -0.375 5.109375 -1.125 C 4.359375 -1.875 3.984375 -2.828125 3.984375 -3.984375 L 3.984375 -48.234375 C 3.984375 -49.390625 4.359375 -50.34375 5.109375 -51.09375 C 5.859375 -51.84375 6.816406 -52.21875 7.984375 -52.21875 L 38.078125 -52.21875 L 38.078125 -44.96875 L 11.890625 -44.96875 L 11.890625 -29.671875 L 35.90625 -29.671875 L 35.90625 -22.40625 L 11.890625 -22.40625 L 11.890625 -7.25 L 39.171875 -7.25 L 39.171875 0 Z M 7.984375 0 "/></g></g></g><g fill="rgb(100%, 100%, 100%)" fill-opacity="1"><g transform="translate(226.328569, 292.013242)"><g><path d="M 11.890625 -17.921875 L 11.890625 0 L 3.984375 0 L 3.984375 -33.359375 C 3.984375 -36.648438 4.539062 -39.503906 5.65625 -41.921875 C 6.769531 -44.335938 8.234375 -46.34375 10.046875 -47.9375 C 11.859375 -49.539062 13.9375 -50.738281 16.28125 -51.53125 C 18.625 -52.332031 21.003906 -52.734375 23.421875 -52.734375 C 25.835938 -52.734375 28.21875 -52.332031 30.5625 -51.53125 C 32.914062 -50.738281 35 -49.539062 36.8125 -47.9375 C 38.625 -46.34375 40.082031 -44.335938 41.1875 -41.921875 C 42.300781 -39.503906 42.859375 -36.648438 42.859375 -33.359375 L 42.859375 0 L 34.953125 0 L 34.953125 -17.921875 Z M 34.953125 -25.171875 L 34.953125 -33.359375 C 34.953125 -35.390625 34.625 -37.15625 33.96875 -38.65625 C 33.320312 -40.15625 32.453125 -41.410156 31.359375 -42.421875 C 30.273438 -43.441406 29.046875 -44.207031 27.671875 -44.71875 C 26.296875 -45.226562 24.878906 -45.484375 23.421875 -45.484375 C 21.972656 -45.484375 20.5625 -45.226562 19.1875 -44.71875 C 17.8125 -44.207031 16.578125 -43.441406 15.484375 -42.421875 C 14.398438 -41.410156 13.53125 -40.15625 12.875 -38.65625 C 12.21875 -37.15625 11.890625 -35.390625 11.890625 -33.359375 L 11.890625 -25.171875 Z M 34.953125 -25.171875 "/></g></g></g><g fill="rgb(100%, 100%, 100%)" fill-opacity="1"><g transform="translate(273.173685, 292.013242)"><g><path d="M 11.890625 0 L 3.984375 0 L 3.984375 -52.21875 L 11.890625 -52.21875 L 11.890625 -29.015625 C 15.472656 -29.015625 18.566406 -29.554688 21.171875 -30.640625 C 23.785156 -31.734375 25.960938 -33.296875 27.703125 -35.328125 C 29.441406 -37.359375 30.734375 -39.796875 31.578125 -42.640625 C 32.429688 -45.492188 32.859375 -48.6875 32.859375 -52.21875 L 40.765625 -52.21875 C 40.765625 -47.238281 40.070312 -42.882812 38.6875 -39.15625 C 37.3125 -35.4375 35.390625 -32.296875 32.921875 -29.734375 C 34.421875 -29.109375 35.773438 -28.332031 36.984375 -27.40625 C 38.191406 -26.488281 39.234375 -25.378906 40.109375 -24.078125 C 40.984375 -22.773438 41.660156 -21.21875 42.140625 -19.40625 C 42.617188 -17.59375 42.859375 -15.476562 42.859375 -13.0625 L 42.859375 0 L 34.953125 0 L 34.953125 -13.0625 C 34.953125 -14.75 34.722656 -16.242188 34.265625 -17.546875 C 33.804688 -18.859375 33.175781 -19.984375 32.375 -20.921875 C 31.582031 -21.867188 30.65625 -22.65625 29.59375 -23.28125 C 28.53125 -23.90625 27.394531 -24.414062 26.1875 -24.8125 C 22.070312 -22.78125 17.304688 -21.765625 11.890625 -21.765625 Z M 11.890625 0 "/></g></g></g></svg>